<?xml version="1.0" encoding="utf-8"?>
<!-- Generator: Adobe Illustrator 26.4.1, SVG Export Plug-In . SVG Version: 6.00 Build 0)  -->
<svg version="1.1" id="Livello_1" xmlns="http://www.w3.org/2000/svg" xmlns:xlink="http://www.w3.org/1999/xlink" x="0px" y="0px"
	 viewBox="0 0 267.9 267.9" style="enable-background:new 0 0 267.9 267.9;" xml:space="preserve">
<style type="text/css">
	.st0{fill:#E94649;stroke:#000000;stroke-width:8.3322;stroke-linejoin:round;stroke-miterlimit:10;}
	.st1{fill:#FCBF43;stroke:#000000;stroke-width:7.499;stroke-miterlimit:10;}
	.st2{fill:#FCBF43;stroke:#000000;stroke-width:7.499;stroke-linecap:round;stroke-miterlimit:10;}
	.st3{fill:#FCBF43;stroke:#000000;stroke-width:7.499;stroke-linecap:round;stroke-linejoin:round;stroke-miterlimit:10;}
</style>
<polygon class="st0" points="29.7,261 8.4,177.8 33.2,191.5 9.1,101.9 55.9,146.7 48.8,92.8 77.2,123.9 70.5,42.2 105.5,101.9 
	119.7,14.2 135.3,103.8 155.9,59.9 160.1,124.8 197.3,42.2 190.3,137.6 212.6,110.2 212.6,143 253.7,105.6 229.6,189.7 255.2,178.7 
	234.4,261 "/>
<path class="st1" d="M48.4,259.6c-1.6-1.5-4.1-4.5-5.7-9.1c-4-11.8,2.1-23.4,2.8-24.7c1.4-2.5,5.6-9.3,12.8-11
	c2.6-0.6,4.7,1.6,6.4,0c1.3-1.3,1.5-3.8,1.5-6c0-1.1-0.1-2.2-0.1-3.3v-1c0-3.3,1-6.5,2.9-8.7c0.8-0.9,1.7-1.6,2.8-2
	c3-1,5.3,1.4,6.4,0c1.1-1.5-0.9-5.2-2.1-11c-0.1-0.4-1.5-7.3-0.7-14.6c1.1-9.7,5.7-16.2,7.8-19.2c3.6-5,7.5-8.1,10.6-10.1
	c1.7-1,4.1-2.1,7.1-2.7c6.2-1.3,10.9,0.5,12.1,0.9c1.1,0.4,5.5,2.3,9.9,7.3c7.6,8.7,6.7,17.4,12.1,19.2c2.6,0.9,4.5-2.1,9.2-8.2
	c1.4-1.8,4.5-2.1,6.4-1.8c2.6,0.4,5.7,1.8,7.1,5.5c1.8,4.5,1.1,11.6,3.5,11.9c1.8,0.2,2.7-1.9,5-3.7c2.1-1.7,5.6-3.2,11.3-1.8
	c1.4,0.2,3.4,0.7,5.7,1.8c4,2,6.5,4.8,7.8,6.4c1.8,2.1,5.1,6,7.1,12.8c1.3,4.6,2.5,8.5,1.4,12.8c-0.5,1.8-1.2,3.1-0.7,4.6
	c0.6,2.1,2.6,1.7,5,3.7c3.2,2.7,4.9,8.3,5,12.8c0,3.3-0.8,4.5,0,6.4c1,2.2,2.9,1.8,5,3.7c2.8,2.4,3.6,6.8,4.3,10.1
	c0.6,2.9,1.9,10-1.4,15.5c-1.6,2.7-3.7,4-5,4.6L48.4,259.6z"/>
<path class="st2" d="M79.7,241.3c-0.2-0.7-1.2-6,1.4-11c0.2-0.4,2.9-5.3,7.1-5.5c5.3-0.3,9.3,7.1,9.9,6.4c0.6-0.7-3.9-5.3-4.3-11.9
	c-0.4-7.4,4.6-14.2,8.5-17.4c5.3-4.3,10.7-3.9,12.8-3.7c0.8,0,2.9,0,5,1.8c2.6,2.2,3.4,5.5,3.5,6.4"/>
<path class="st3" d="M152,214.8c1.3,0.2,4.8,0.9,7.8,4.6c4.4,5.3,4.3,12.6,4.3,13.7"/>
</svg>
