<?xml version="1.0" encoding="UTF-8"?>
<svg id="Livello_1" data-name="Livello 1" xmlns="http://www.w3.org/2000/svg" viewBox="0 0 841.89 595.28">
  <defs>
    <style>
      .cls-1 {
        fill: #e94649;
        stroke-width: 10px;
      }

      .cls-1, .cls-2 {
        stroke-linejoin: round;
      }

      .cls-1, .cls-2, .cls-3, .cls-4 {
        stroke: #1d1d1b;
      }

      .cls-2, .cls-3, .cls-4 {
        fill: #fcbf43;
        stroke-width: 9px;
      }

      .cls-2, .cls-4 {
        stroke-linecap: round;
      }

      .cls-3, .cls-4 {
        stroke-miterlimit: 10;
      }
    </style>
  </defs>
  <polygon class="cls-1" points="277 402 247 311 282 326 248 228 314 277 304 218 344 252 334.62 162.64 384 228 404 132 426 230 455 182 461 253 513.34 162.64 503.47 267 535 237 535 272.94 593 232 559 324 595 312 565.77 402 277 402"/>
  <path class="cls-3" d="M303.5,400.5c-2.25-1.69-5.8-4.9-8-10-5.58-12.96,3.03-25.62,4-27,1.92-2.72,7.87-10.2,18-12,3.63-.65,6.68,1.77,9,0,1.84-1.41,2.18-4.17,2.1-6.6-.04-1.2-.1-2.4-.1-3.59v-1.08c0-3.6,1.39-7.12,4.06-9.53,1.11-1,2.41-1.8,3.94-2.2,4.22-1.1,7.51,1.56,9,0,1.59-1.67-1.27-5.68-3-12-.12-.44-2.13-8.03-1-16,1.51-10.64,8.02-17.75,11-21,5.02-5.48,10.54-8.89,15-11,2.33-1.05,5.74-2.32,10-3,8.69-1.39,15.42,.52,17,1,1.62,.49,7.81,2.49,14,8,10.76,9.57,9.5,19.03,17,21,3.6,.94,6.28-2.28,13-9,2-2,6.36-2.32,9-2,3.69,.45,8,2,10,6,2.47,4.95,1.54,12.67,5,13,2.54,.25,3.86-2.07,7-4,2.97-1.82,7.85-3.46,16-2,2.01,.24,4.83,.77,8,2,5.6,2.17,9.12,5.3,11,7,2.5,2.26,7.21,6.62,10,14,1.88,4.98,3.53,9.33,2,14-.63,1.93-1.62,3.34-1,5,.88,2.34,3.73,1.82,7,4,4.45,2.96,6.92,9.1,7,14,.06,3.57-1.19,4.93,0,7,1.42,2.45,4.02,2,7,4,3.98,2.68,5.12,7.39,6,11,.78,3.21,2.66,10.96-2,17-2.26,2.93-5.2,4.33-7,5l-230-1Z"/>
  <path class="cls-4" d="M347.5,380.5c-.22-.78-1.75-6.6,2-12,.31-.45,4.12-5.76,10-6,7.49-.31,13.1,7.81,14,7,.81-.73-5.47-5.83-6-13-.6-8.14,6.48-15.51,12-19,7.41-4.69,15.06-4.31,18-4,1.11-.03,4.06,.05,7,2,3.65,2.42,4.74,6.05,5,7"/>
  <path class="cls-2" d="M449.5,351.5c1.79,.2,6.72,.99,11,5,6.21,5.82,6.05,13.75,6,15"/>
</svg>
