<?xml version="1.0" encoding="UTF-8"?>
<svg id="Livello_1" data-name="Livello 1" xmlns="http://www.w3.org/2000/svg" viewBox="0 0 264.053 172.395">
  <defs>
    <style>
      .cls-1, .cls-2 {
        fill: #fad9c7;
        stroke: #946051;
        stroke-miterlimit: 10;
        stroke-width: 4px;
      }

      .cls-3 {
        fill: #f7b290;
      }

      .cls-4 {
        fill: #aed4d6;
      }

      .cls-2 {
        stroke-linecap: round;
      }

      .cls-5 {
        fill: #946051;
      }
    </style>
  </defs>
  <g>
    <path class="cls-1" d="M169.516,111.935c4.056,3.245,10.012,7.827,19.331,13.186,1.006,.578,3.049,1.73,5.863,2.551,1.326,.387,2.824,.701,4.464,.847,2.811,.25,5.673,.46,8.236-1.495,3.543-2.704,3.658-7.37,3.66-7.658,.029-3.19-1.227-5.94-2.963-7.431-7.756-6.661-15.097-12.161-15.339-12.325-11.051-7.53,1.604,.825-34.163-23.925-13.459-9.314-20.441-13.57-23.008-14.772-8.53-3.994-14.351-5.234-34.947-13.413-2.975-1.181-5.405-2.169-6.972-2.809l-8.541-5.166-42.105,53.641c4.019,6.144,10.545,15.731,16.221,22.122,.505,.568,1.009,1.128,1.514,1.681,1.806,1.977,3.83,3.725,6.003,5.251l59.153,41.553c3.892,2.266,11.462,5.839,20.568,4.803,3.464-.394,7.817-.957,11.068-4.622,2.271-2.56,3.025-5.53,3.312-7.25l8.018-43.863,.627-.906Z"/>
    <path class="cls-2" d="M156.753,127.499c2.281,1.668,16.615,12.071,25.492,14.953,2.777,.902,5.072,1.084,6.994,0,1.869-1.054,2.729-2.937,3.53-4.69,.734-1.606,1.503-6.096,1.385-10.263l-27.389-17.657"/>
    <path class="cls-2" d="M156.658,127.494l20.677,15.678c.173,1.394,.295,3.54-.174,6.072-.432,2.334-.93,5.02-3.094,7.114-2.392,2.314-5.378,2.511-5.97,2.538-3.597,.164-6.025-1.954-9.892-4.848-2.932-2.195-7.167-5.192-12.68-8.519"/>
    <g>
      <path class="cls-4" d="M37.989,101.428c-.465,0-.918-.162-1.279-.463L2.721,72.691c-.826-.687-.961-1.903-.308-2.755L53.919,2.783c.335-.437,.834-.716,1.382-.772,.068-.007,.137-.011,.205-.011,.477,0,.94,.17,1.305,.485l35.035,30.178c.817,.704,.929,1.929,.252,2.77L39.546,100.683c-.336,.417-.826,.682-1.359,.735-.066,.007-.133,.01-.199,.01Z"/>
      <path class="cls-5" d="M55.506,4l35.035,30.178L37.989,99.428,4,71.153,55.506,4m0-4c-.136,0-.273,.007-.41,.021-1.094,.113-2.094,.672-2.764,1.545L.826,68.719c-1.307,1.704-1.035,4.136,.616,5.509l33.989,28.275c.722,.6,1.628,.925,2.558,.925,.132,0,.265-.007,.397-.02,1.067-.106,2.046-.636,2.718-1.471L93.656,36.687c1.353-1.68,1.13-4.132-.505-5.54L58.117,.969c-.729-.628-1.657-.969-2.61-.969h0Z"/>
    </g>
    <path class="cls-1" d="M184.751,36.534c-3.339,.086-8.442,.103-14.641-.362-11.514-.864-21.804-3.016-26.145-3.988,0,0-17.406-3.897-26.494-2.538-2.053,.307-3.523,1.097-3.835,1.269-2.416,1.331-3.727,3.262-4.358,4.169-2.089,3.001-5.189,6.917-9.48,12.076l-13.238,24.448c-.887,1.638-.511,3.723,.926,4.864,.858,.681,1.873,1.355,3.056,1.931,4.882,2.379,9.511,1.585,13.16,.906,6.918-1.287,11.728-4.294,17.779-8.156,4.739-3.025,8.391-5.925,10.807-7.975l2.658-2.567,1.444,.696,7.429,4.459,16.187,10.886,21.558,15.027,12.915,9.218,8.164,6.462,2.272,1.874,12.956-10.621-33.117-62.078Z"/>
    <path class="cls-3" d="M166.107,57.063c4.918-3.515,16.182,.493,17.493,.959,6.594,2.346,10.365,5.896,14.855,10.218,4.931,4.747,15.788,15.201,11.724,21.791-.447,.725-1.793,2.569-4.716,3.442-10.294,3.077-30.904-8.644-38.243-21.918-1.227-2.219-6.058-10.958-1.114-14.492Z"/>
    <g>
      <path class="cls-4" d="M221.697,107.639c-.193,0-.388-.028-.576-.085-.518-.155-.951-.515-1.2-.995L180.76,30.927c-.503-.971-.132-2.167,.833-2.683L222.044,6.594c.293-.157,.617-.237,.943-.237,.207,0,.414,.032,.615,.097,.517,.167,.943,.537,1.182,1.025l37.065,75.883c.467,.955,.105,2.107-.822,2.625l-38.355,21.398c-.301,.168-.637,.254-.975,.254Z"/>
      <path class="cls-5" d="M222.987,8.357l37.065,75.883-38.355,21.398L182.537,30.008l40.449-21.651m0-4c-.652,0-1.301,.16-1.888,.473l-40.449,21.651c-1.929,1.032-2.67,3.423-1.664,5.366l39.159,75.631c.498,.961,1.364,1.68,2.4,1.991,.377,.113,.765,.169,1.152,.169,.676,0,1.348-.171,1.949-.507l38.355-21.398c1.855-1.035,2.578-3.34,1.645-5.249L226.581,6.602c-.477-.976-1.33-1.717-2.364-2.051-.401-.13-.816-.194-1.23-.194h0Z"/>
    </g>
    <path class="cls-1" d="M61.496,125.145c.329-2.08,1.235-6.043,4.355-10.644,2.595-3.827,6.066-8.944,11.767-9.679,.702-.09,5.699-.734,8.371,2.653,1.884,2.389,1.58,5.474,1.507,6.212-.231,2.339-1.658,4.41-4.502,8.457-1.01,1.437-2.187,3.103-4.077,5.35-3.779,4.493-5.668,6.739-7.984,7.443-2.782,.846-6.854,.5-8.791-2.132-1.529-2.079-1.108-4.739-.645-7.66Z"/>
    <path class="cls-1" d="M74.461,151.085c-2.419-2.691-2.259-6.033-2.222-6.797,.128-2.68,1.317-4.616,2.092-5.845,11.748-18.64,12.302-17.293,14.366-21.529,.308-.632,1.17-2.458,3.021-4.027,.863-.732,2.688-2.235,5.36-2.311,2.763-.079,4.707,1.417,5.491,2.039,.531,.422,3.819,3.031,3.66,6.661-.019,.43-.109,1.39-1.569,4.078-1.881,3.464-3.851,5.733-3.922,5.845-8.889,14-6.156,9.166-11.509,17.264-.193,.292-2.495,3.905-3.394,4.894-1.898,2.087-4.442,2.417-4.706,2.447-3.752,.43-6.326-2.34-6.667-2.719Z"/>
    <path class="cls-1" d="M88.768,161.635c-2.343-2.762-2.091-6.098-2.033-6.861,.202-2.675,1.444-4.575,2.253-5.78,12.26-18.28,12.777-16.917,14.957-21.089,.325-.623,1.238-2.422,3.131-3.935,.883-.706,2.748-2.153,5.422-2.149,2.764,.004,4.666,1.558,5.432,2.203,.519,.437,3.734,3.144,3.474,6.768-.031,.429-.147,1.386-1.681,4.029-1.977,3.406-4.008,5.615-4.082,5.725-9.274,13.728-6.408,8.977-11.983,16.912-.201,.286-2.602,3.829-3.528,4.79-1.955,2.029-4.507,2.282-4.772,2.305-3.763,.317-6.259-2.528-6.589-2.918Z"/>
    <path class="cls-1" d="M116.163,169.844c-.725,.255-3.008,1.021-5.621,.136-.506-.171-3.296-1.174-4.706-4.078-.25-.516-1.063-2.338-.523-5.981,.872-5.889,4.249-9.594,8.962-14.765,1.221-1.339,2.651-2.776,4.895-3.451,.818-.246,2.65-.768,4.706,0,2.706,1.011,3.869,3.533,4.183,4.214,1.463,3.173,.601,6.26,.261,7.477-.498,1.785-1.239,2.942-2.353,4.622-7.019,10.583-8.636,11.416-9.804,11.827Z"/>
  </g>
  <path class="cls-3" d="M62.322,101.51c-.686-2.002,1.689-4.602,3.942-7.069,4.149-4.543,9.277-6.507,17.606-8.428,13.158-3.034,13.459-1.152,22.074-3.534,13.105-3.624,13.518-8.288,21.023-7.612,4.755,.428,4.255,2.27,19.183,9.244,7.841,3.663,10.321,4.249,10.774,6.525,.874,4.395-6.715,10.541-13.927,13.322-10.591,4.083-17.291-.279-31.534-2.447-27.56-4.194-47.319,5.314-49.14,0Z"/>
</svg>